<?xml version="1.0" standalone="no"?><!-- Generator: Gravit.io --><svg xmlns="http://www.w3.org/2000/svg" xmlns:xlink="http://www.w3.org/1999/xlink" style="isolation:isolate" viewBox="678.5 -564.324 158.488 68.759" width="158.488" height="68.759"><defs><clipPath id="_clipPath_fBBSk5iGdYZddGb3X9b5G2ENMg9kFqbe"><rect x="678.5" y="-564.324" width="158.488" height="68.759"/></clipPath></defs><g clip-path="url(#_clipPath_fBBSk5iGdYZddGb3X9b5G2ENMg9kFqbe)"><g><g><path d=" M 696.28 -563.824 C 683.086 -563.824 675.933 -548.613 680.265 -529.977 C 684.696 -511.35 699.001 -496.134 712.096 -496.134 C 725.291 -496.134 732.443 -511.35 728.112 -529.977 C 723.68 -548.613 709.375 -563.824 696.28 -563.824 Z  M 694.67 -557.777 C 699.712 -557.777 706.454 -547.103 712.596 -530.177 C 718.748 -513.361 719.959 -502.177 714.917 -502.177 C 709.885 -502.177 702.022 -513.561 695.88 -529.977 C 689.738 -546.403 689.638 -557.777 694.67 -557.777 Z " fill-rule="evenodd" fill="rgb(199,0,0)" vector-effect="non-scaling-stroke" stroke-width="1" stroke="rgb(213,0,0)" stroke-linejoin="miter" stroke-linecap="butt" stroke-miterlimit="4"/><linearGradient id="_lgradient_2" x1="0.9799248759836723" y1="0.920361758933816" x2="0.5041744270926549" y2="0.8338443316443419" gradientTransform="matrix(33.783,0,0,46,733,-542)" gradientUnits="userSpaceOnUse"><stop offset="0%" stop-opacity="1" style="stop-color:rgb(199,0,0)"/><stop offset="100%" stop-opacity="1" style="stop-color:rgb(224,75,75)"/></linearGradient><path d=" M 744.324 -542 C 720.492 -534.034 739.27 -496.681 755.057 -496 C 764.011 -496 768.864 -506.34 765.925 -518.999 C 762.918 -531.663 753.21 -542 744.324 -542 Z  M 743.232 -537.891 C 746.653 -537.891 751.228 -530.637 755.396 -519.135 C 759.571 -507.707 760.393 -500.107 756.971 -500.107 C 753.556 -500.107 748.221 -507.843 744.053 -518.999 C 739.885 -530.161 739.817 -537.891 743.232 -537.891 Z  M 721.291 -496" fill-rule="evenodd" fill="url(#_lgradient_2)" vector-effect="non-scaling-stroke" stroke-width="0.732" stroke="rgb(213,0,0)" stroke-linejoin="miter" stroke-linecap="butt" stroke-miterlimit="4"/></g><linearGradient id="_lgradient_3" x1="0.9900103107110158" y1="0.9203753787039093" x2="0.017283898938401432" y2="0.7723430224178636" gradientTransform="matrix(119.192,0,0,66.577,717.296,-562.642)" gradientUnits="userSpaceOnUse"><stop offset="0%" stop-opacity="1" style="stop-color:rgb(199,0,0)"/><stop offset="24.52%" stop-opacity="1" style="stop-color:rgb(224,75,75)"/><stop offset="56.15%" stop-opacity="1" style="stop-color:rgb(194,0,0)"/><stop offset="77.64%" stop-opacity="1" style="stop-color:rgb(177,0,0)"/><stop offset="100%" stop-opacity="1" style="stop-color:rgb(222,0,0)"/></linearGradient><path d=" M 795.973 -526.686 L 778.266 -526.686 C 774.265 -526.686 773.365 -529.197 771.264 -532.428 C 769.563 -535.139 767.663 -538.17 765.962 -540.481 C 769.463 -540.181 773.565 -540.181 779.067 -540.381 C 781.668 -538.27 781.168 -535.039 780.267 -532.728 C 780.367 -532.428 780.467 -532.228 780.567 -531.918 C 782.968 -532.828 784.869 -534.239 785.369 -537.56 C 785.769 -539.781 785.669 -541.191 784.569 -543.002 C 783.768 -544.312 783.068 -545.523 782.468 -546.723 L 749.556 -546.723 C 749.956 -546.123 750.456 -545.623 750.857 -545.012 C 752.057 -543.302 752.157 -543.002 754.158 -542.602 C 756.459 -542.091 758.659 -541.491 761.16 -541.091 C 763.761 -537.86 766.162 -533.638 768.563 -530.207 C 771.164 -526.176 772.965 -523.365 777.966 -523.365 L 798.474 -523.365 C 797.673 -524.465 796.873 -525.575 795.973 -526.686 L 795.973 -526.686 Z  M 827.884 -562.642 L 800.174 -553.676 C 801.975 -542.392 836.488 -510.27 836.488 -496.065 L 820.482 -496.065 C 820.482 -508.759 787.77 -537.26 783.268 -555.086 C 782.568 -557.607 782.768 -560.023 782.768 -562.642 L 827.884 -562.642 Z  M 778.867 -562.642 L 717.444 -562.642 C 716.844 -559.218 718.045 -555.896 721.546 -552.265 L 747.155 -552.265 L 748.156 -549.144 L 781.268 -549.144 C 780.367 -551.265 779.667 -553.275 779.167 -555.086 C 778.567 -557.607 778.767 -560.023 778.867 -562.642 L 778.867 -562.642 Z " fill-rule="evenodd" fill="url(#_lgradient_3)" vector-effect="non-scaling-stroke" stroke-width="1" stroke="rgb(213,0,0)" stroke-opacity="100" stroke-linejoin="miter" stroke-linecap="butt" stroke-miterlimit="4"/><path d=" M 827.984 -563.133 L 828.084 -563.005 L 800.475 -553.755 C 800.975 -551.024 803.376 -547.003 806.777 -542.311 C 810.278 -537.499 814.78 -531.987 819.181 -526.375 C 823.583 -520.763 827.984 -515.061 831.286 -509.859 C 834.487 -504.657 836.688 -499.976 836.688 -496.344 L 836.688 -496.134 L 820.282 -496.134 L 820.282 -496.344 C 820.282 -499.426 818.281 -503.577 815.18 -508.299 C 811.979 -513.02 807.777 -518.332 803.376 -523.804 C 794.672 -534.738 785.369 -546.312 783.068 -555.316 C 782.268 -557.877 782.568 -560.32 782.568 -562.927 L 782.568 -563.133 L 827.884 -563.133 L 827.984 -563.133 Z  M 779.067 -563.133 L 779.067 -562.914 C 778.967 -560.291 778.767 -557.897 779.367 -555.416 C 779.767 -553.625 780.467 -551.624 781.368 -549.514 L 781.568 -549.224 L 748.056 -549.224 L 747.956 -549.364 L 747.055 -552.345 L 721.346 -552.345 L 721.346 -552.405 C 717.845 -556.066 716.644 -559.477 717.244 -562.966 L 717.244 -563.133 L 778.867 -563.133 L 779.067 -563.133 Z  M 827.684 -562.722 L 782.968 -562.722 C 782.968 -560.177 782.768 -557.827 783.468 -555.416 C 785.669 -546.593 794.973 -534.998 803.676 -524.054 C 808.077 -518.582 812.379 -513.271 815.48 -508.529 C 818.581 -503.877 820.582 -499.776 820.682 -496.544 L 836.287 -496.544 C 836.187 -499.996 834.087 -504.567 830.886 -509.639 C 827.684 -514.811 823.283 -520.513 818.881 -526.115 C 814.38 -531.727 809.878 -537.239 806.477 -542.071 C 802.975 -546.893 800.374 -551.024 799.974 -553.935 L 799.874 -554.165 L 827.684 -562.722 Z  M 778.667 -562.722 L 717.645 -562.722 C 717.144 -559.447 718.245 -556.266 721.546 -552.755 L 747.355 -552.755 L 747.355 -552.615 L 748.356 -549.624 L 780.867 -549.624 C 780.067 -551.644 779.367 -553.575 778.967 -555.316 L 778.967 -555.326 C 778.367 -557.817 778.567 -560.193 778.667 -562.722 Z  M 782.568 -547.223 L 782.568 -547.103 C 783.168 -545.902 783.869 -544.692 784.669 -543.391 C 785.869 -541.541 785.969 -540.05 785.569 -537.819 L 785.569 -537.799 C 785.069 -534.418 783.068 -532.928 780.567 -532.007 L 780.367 -531.937 L 780.267 -532.137 C 780.267 -532.427 780.067 -532.628 779.967 -532.948 L 779.967 -533.088 C 780.467 -534.228 780.767 -535.589 780.767 -536.909 C 780.667 -538.2 780.167 -539.44 778.967 -540.45 C 773.765 -540.26 769.763 -540.28 766.362 -540.54 C 767.963 -538.27 769.763 -535.419 771.364 -532.818 C 772.464 -531.197 773.265 -529.777 774.165 -528.766 C 775.165 -527.766 776.366 -527.166 778.266 -527.166 L 795.673 -527.166 L 795.673 -527.536 L 796.073 -527.096 C 796.973 -525.975 797.774 -524.865 798.574 -523.764 L 798.874 -523.444 L 777.966 -523.444 C 775.465 -523.444 773.665 -524.164 772.264 -525.405 C 770.764 -526.635 769.663 -528.366 768.363 -530.377 L 768.363 -530.387 C 765.962 -533.808 763.661 -538.009 761.06 -541.201 C 758.559 -541.601 756.359 -542.191 754.058 -542.681 C 753.057 -542.891 752.457 -543.071 752.057 -543.441 C 751.557 -543.812 751.257 -544.332 750.656 -545.182 C 750.256 -545.782 749.856 -546.282 749.456 -546.903 L 749.156 -547.223 L 782.368 -547.223 L 782.568 -547.223 Z  M 782.268 -546.813 L 749.956 -546.813 C 750.356 -546.353 750.656 -545.912 750.957 -545.412 C 751.557 -544.552 751.857 -544.072 752.257 -543.762 C 752.657 -543.451 753.157 -543.281 754.158 -543.081 C 756.459 -542.581 758.659 -541.971 761.16 -541.571 L 761.26 -541.561 L 761.36 -541.491 C 763.961 -538.25 766.262 -534.028 768.663 -530.617 L 768.663 -530.607 C 769.963 -528.586 771.064 -526.885 772.464 -525.705 C 773.865 -524.525 775.465 -523.854 777.966 -523.854 L 797.974 -523.854 C 797.273 -524.815 796.573 -525.795 795.773 -526.755 L 778.266 -526.755 C 776.266 -526.755 774.965 -527.426 773.865 -528.486 C 772.865 -529.556 772.164 -530.987 771.064 -532.588 L 771.064 -532.598 C 769.363 -535.319 767.463 -538.34 765.762 -540.65 L 765.462 -541.011 L 765.962 -540.971 C 769.463 -540.67 773.565 -540.66 779.067 -540.861 L 779.167 -540.881 L 779.267 -540.831 C 780.567 -539.73 781.067 -538.32 781.168 -536.919 C 781.168 -535.549 780.867 -534.168 780.467 -533.008 C 780.467 -532.828 780.567 -532.658 780.667 -532.487 C 782.868 -533.378 784.669 -534.718 785.169 -537.879 C 785.569 -540.07 785.469 -541.391 784.369 -543.171 C 783.568 -544.442 782.868 -545.632 782.268 -546.813 L 782.268 -546.813 Z " fill-rule="evenodd" fill="rgb(139,0,0)"/></g></g></svg>